<?xml version="1.0" standalone="no"?>
<svg xmlns:xlink="http://www.w3.org/1999/xlink" id="wave" style="transform:rotate(180deg); transition: 0.3s" viewBox="0 0 1440 100" version="1.1" xmlns="http://www.w3.org/2000/svg"><defs><linearGradient id="sw-gradient-0" x1="0" x2="0" y1="1" y2="0"><stop stop-color="rgba(255, 249, 234, 1)" offset="0%"/><stop stop-color="rgba(255, 249, 234, 1)" offset="100%"/></linearGradient></defs><path style="transform:translate(0, 0px); opacity:1" fill="url(#sw-gradient-0)" d="M0,20L40,31.7C80,43,160,67,240,78.3C320,90,400,90,480,86.7C560,83,640,77,720,68.3C800,60,880,50,960,53.3C1040,57,1120,73,1200,73.3C1280,73,1360,57,1440,56.7C1520,57,1600,73,1680,73.3C1760,73,1840,57,1920,41.7C2000,27,2080,13,2160,21.7C2240,30,2320,60,2400,68.3C2480,77,2560,63,2640,55C2720,47,2800,43,2880,41.7C2960,40,3040,40,3120,43.3C3200,47,3280,53,3360,53.3C3440,53,3520,47,3600,50C3680,53,3760,67,3840,65C3920,63,4000,47,4080,33.3C4160,20,4240,10,4320,10C4400,10,4480,20,4560,35C4640,50,4720,70,4800,80C4880,90,4960,90,5040,85C5120,80,5200,70,5280,61.7C5360,53,5440,47,5520,40C5600,33,5680,27,5720,23.3L5760,20L5760,100L5720,100C5680,100,5600,100,5520,100C5440,100,5360,100,5280,100C5200,100,5120,100,5040,100C4960,100,4880,100,4800,100C4720,100,4640,100,4560,100C4480,100,4400,100,4320,100C4240,100,4160,100,4080,100C4000,100,3920,100,3840,100C3760,100,3680,100,3600,100C3520,100,3440,100,3360,100C3280,100,3200,100,3120,100C3040,100,2960,100,2880,100C2800,100,2720,100,2640,100C2560,100,2480,100,2400,100C2320,100,2240,100,2160,100C2080,100,2000,100,1920,100C1840,100,1760,100,1680,100C1600,100,1520,100,1440,100C1360,100,1280,100,1200,100C1120,100,1040,100,960,100C880,100,800,100,720,100C640,100,560,100,480,100C400,100,320,100,240,100C160,100,80,100,40,100L0,100Z"/></svg>